<svg xmlns="http://www.w3.org/2000/svg" style="display: none;">
    <symbol id="icon-search" viewBox="0 0 24 24">
        <g clip-path="url(#clip0_5_136)">
            <path
                d="M23.707 22.293L17.738 16.324C19.3647 14.3346 20.1644 11.7961 19.9719 9.23359C19.7793 6.67106 18.6092 4.28056 16.7036 2.55655C14.798 0.832537 12.3026 -0.0930816 9.73367 -0.0288498C7.16472 0.035382 4.71873 1.08455 2.90164 2.90164C1.08455 4.71873 0.035382 7.16472 -0.0288498 9.73367C-0.0930816 12.3026 0.832537 14.798 2.55655 16.7036C4.28056 18.6092 6.67106 19.7793 9.23359 19.9719C11.7961 20.1644 14.3346 19.3647 16.324 17.738L22.293 23.707C22.4816 23.8892 22.7342 23.99 22.9964 23.9877C23.2586 23.9854 23.5094 23.8803 23.6948 23.6948C23.8803 23.5094 23.9854 23.2586 23.9877 22.9964C23.99 22.7342 23.8892 22.4816 23.707 22.293ZM10 18C8.41778 18 6.87106 17.5308 5.55546 16.6518C4.23987 15.7727 3.21449 14.5233 2.60899 13.0615C2.00349 11.5997 1.84506 9.99115 2.15374 8.4393C2.46243 6.88746 3.22435 5.46199 4.34317 4.34317C5.46199 3.22435 6.88746 2.46243 8.4393 2.15374C9.99115 1.84506 11.5997 2.00349 13.0615 2.60899C14.5233 3.21449 15.7727 4.23987 16.6518 5.55546C17.5308 6.87106 18 8.41778 18 10C17.9976 12.121 17.154 14.1545 15.6543 15.6543C14.1545 17.154 12.121 17.9976 10 18Z" />
        </g>
        <defs>
            <clipPath id="clip0_5_136">
                <rect width="24" height="24" />
            </clipPath>
        </defs>
    </symbol>
    <symbol id="icon-mic" viewBox="0 0 24 24">
        <g>
            <g clip-path="url(#clip0_5_140)">
                <path
                    d="M12 20C14.121 19.9976 16.1544 19.154 17.6542 17.6542C19.154 16.1544 19.9976 14.121 20 12V8C20 5.87827 19.1571 3.84344 17.6569 2.34315C16.1566 0.842855 14.1217 0 12 0C9.87827 0 7.84344 0.842855 6.34315 2.34315C4.84285 3.84344 4 5.87827 4 8V12C4.00238 14.121 4.846 16.1544 6.34578 17.6542C7.84555 19.154 9.879 19.9976 12 20ZM12 2C13.4166 2.00263 14.7866 2.50587 15.868 3.4208C16.9495 4.33573 17.6727 5.60346 17.91 7H15C14.7348 7 14.4804 7.10536 14.2929 7.29289C14.1054 7.48043 14 7.73478 14 8C14 8.26522 14.1054 8.51957 14.2929 8.70711C14.4804 8.89464 14.7348 9 15 9H18V11H15C14.7348 11 14.4804 11.1054 14.2929 11.2929C14.1054 11.4804 14 11.7348 14 12C14 12.2652 14.1054 12.5196 14.2929 12.7071C14.4804 12.8946 14.7348 13 15 13H17.91C17.675 14.3975 16.9523 15.6665 15.8704 16.5817C14.7884 17.4969 13.4171 17.999 12 17.999C10.5829 17.999 9.21161 17.4969 8.12965 16.5817C7.04768 15.6665 6.32503 14.3975 6.09 13H9C9.26522 13 9.51957 12.8946 9.70711 12.7071C9.89464 12.5196 10 12.2652 10 12C10 11.7348 9.89464 11.4804 9.70711 11.2929C9.51957 11.1054 9.26522 11 9 11H6V9H9C9.26522 9 9.51957 8.89464 9.70711 8.70711C9.89464 8.51957 10 8.26522 10 8C10 7.73478 9.89464 7.48043 9.70711 7.29289C9.51957 7.10536 9.26522 7 9 7H6.09C6.32727 5.60346 7.05052 4.33573 8.13197 3.4208C9.21342 2.50587 10.5834 2.00263 12 2Z"
                />
                <path
                    d="M23 12C22.7348 12 22.4804 12.1054 22.2929 12.2929C22.1054 12.4804 22 12.7348 22 13C21.9974 15.3861 21.0483 17.6738 19.361 19.361C17.6738 21.0483 15.3861 21.9974 13 22H11C8.61395 21.9971 6.32645 21.0479 4.63925 19.3607C2.95206 17.6735 2.00291 15.3861 2 13C2 12.7348 1.89464 12.4804 1.70711 12.2929C1.51957 12.1054 1.26522 12 1 12C0.734784 12 0.48043 12.1054 0.292893 12.2929C0.105357 12.4804 0 12.7348 0 13C0.00344047 15.9163 1.16347 18.7122 3.22563 20.7744C5.28778 22.8365 8.08367 23.9966 11 24H13C15.9163 23.9966 18.7122 22.8365 20.7744 20.7744C22.8365 18.7122 23.9966 15.9163 24 13C24 12.7348 23.8946 12.4804 23.7071 12.2929C23.5196 12.1054 23.2652 12 23 12Z"
                />
            </g>
        </g>
        <defs>
            <clipPath id="clip0_5_140">
                <rect width="24" height="24" />
            </clipPath>
        </defs>
    </symbol>

    <symbol id="icon-arrow-right" viewBox="0 0 15 15">
        <path d="M8.31668 7.08584C8.37135 7.14007 8.41475 7.20458 8.44436 7.27567C8.47398 7.34675 8.48923 7.423 8.48923 7.50001C8.48923 7.57701 8.47398 7.65326 8.44436 7.72434C8.41475 7.79543 8.37135 7.85994 8.31668 7.91417L5.63918 10.5858C5.5845 10.6401 5.54111 10.7046 5.51149 10.7757C5.48188 10.8468 5.46663 10.923 5.46663 11C5.46663 11.077 5.48187 11.1533 5.51149 11.2243C5.54111 11.2954 5.5845 11.3599 5.63918 11.4142C5.74847 11.5228 5.89632 11.5838 6.05043 11.5838C6.20454 11.5838 6.35238 11.5228 6.46168 11.4142L9.13918 8.73667C9.4669 8.40855 9.65097 7.96376 9.65097 7.50001C9.65097 7.03625 9.4669 6.59146 9.13918 6.26334L6.46168 3.58584C6.35303 3.47807 6.20638 3.41732 6.05334 3.41667C5.97657 3.41623 5.90047 3.43094 5.8294 3.45997C5.75833 3.489 5.69368 3.53178 5.63918 3.58584C5.5845 3.64007 5.54111 3.70458 5.51149 3.77567C5.48188 3.84675 5.46663 3.923 5.46663 4.00001C5.46663 4.07701 5.48188 4.15326 5.51149 4.22434C5.54111 4.29543 5.5845 4.35994 5.63918 4.41417L8.31668 7.08584Z" />

    </symbol>


        
</svg>